<svg width="20" height="20" viewBox="0 0 20 20" fill="white" xmlns="http://www.w3.org/2000/svg">
<path d="M2.55287 6.25794C3.92408 3.53443 6.7422 1.66699 9.99984 1.66699C12.246 1.66699 14.1323 2.49278 15.5756 3.83745L13.1854 6.22761C12.3218 5.40187 11.2233 4.98138 9.99984 4.98138C7.82935 4.98138 5.9922 6.4473 5.33696 8.41699C5.17025 8.91699 5.07555 9.45108 5.07555 10.0003C5.07555 10.5496 5.17025 11.0837 5.33696 11.5837C5.9922 13.5533 7.82935 15.0192 9.99984 15.0192C11.121 15.0192 12.0756 14.7238 12.8218 14.2238C13.7043 13.6329 14.2915 12.7503 14.4847 11.7087H9.99984V8.48516H17.8483C17.9468 9.03058 17.9998 9.59882 17.9998 10.1897C17.9998 12.7276 17.0908 14.8639 15.5149 16.3147C14.1362 17.5875 12.2498 18.3337 9.99984 18.3337C6.7422 18.3337 3.92408 16.4662 2.55287 13.7427C1.98849 12.6177 1.6665 11.345 1.6665 10.0003C1.6665 8.65566 1.98849 7.38292 2.55287 6.25794Z" fill="white"/>
</svg>
