<svg width="89" height="89" viewBox="0 0 89 89" fill="none" xmlns="http://www.w3.org/2000/svg">
<circle cx="44.5" cy="44.5" r="44.5" fill="#0B091D"/>
<g clip-path="url(#clip0_215_3608)">
<path d="M26.5137 70.4193C26.1502 70.2174 25.7382 69.8134 25.5685 69.4822C25.415 69.1914 25.415 68.6258 25.415 47.5404V25.9055L25.6493 25.542C26.0937 24.8472 26.7319 24.419 27.3055 24.419H27.6771V67.9553L27.8548 68.125C28.0729 68.3269 28.0972 68.3269 28.2911 68.1169C28.4365 67.9553 28.4446 67.6079 28.485 56.0957L28.5254 44.2523L49.5058 44.2119L49.4735 44.8421C49.4573 45.1814 49.3604 45.7388 49.2554 46.07L49.0696 46.6759L40.0537 46.6517C35.1014 46.6436 31.0136 46.6598 30.9813 46.6921C30.9409 46.7325 30.9086 51.6767 30.9005 57.6872L30.8924 68.6178L30.6662 69.0863C30.3835 69.6761 30.0765 70.0315 29.6241 70.3224C29.2686 70.5486 29.2444 70.5486 28.0083 70.5486C27.0227 70.5405 26.6996 70.5163 26.5137 70.4193Z" fill="white"/>
<path d="M30.3431 70.4597C30.3431 70.3385 30.5046 70.2093 30.9409 69.9911C31.3933 69.7569 31.8053 69.3045 32.0961 68.7147L32.2981 68.2865H63.0619V68.5935C63.0619 68.8763 63.0215 68.9328 62.5206 69.3125C61.8905 69.7811 61.1553 70.1689 60.4525 70.3951C59.9839 70.5405 59.5234 70.5486 45.1595 70.5486C34.6733 70.5486 30.3431 70.5243 30.3431 70.4597Z" fill="white"/>
<path d="M32.3385 67.4221C32.3224 67.3817 32.3143 66.8485 32.3143 66.2265L32.3224 65.0954L63.0215 65.0147L63.482 64.7884C63.9587 64.5542 64.508 64.0129 64.6938 63.5928C64.7827 63.3989 64.8473 63.3585 65.0735 63.3585H65.3482L65.2997 64.0694C65.2432 64.8208 65.0251 65.766 64.7665 66.3719C64.5807 66.8 64.2253 67.0666 63.5143 67.3171C63.0377 67.4787 62.9084 67.4787 47.7043 67.4787C39.2701 67.4787 32.3547 67.4544 32.3385 67.4221Z" fill="white"/>
<path d="M59.6285 46.6759H56.6474L56.5101 47.201C56.2596 48.1382 55.7264 49.3742 55.3225 49.9721C55.1932 50.1579 54.9913 50.4649 54.8701 50.6426C54.248 51.5959 52.9474 52.8804 51.9214 53.559C49.9986 54.8435 47.7123 55.5221 45.3291 55.5221C41.9037 55.5221 38.858 54.2215 36.6283 51.814C35.6993 50.8122 34.544 48.9137 34.544 48.3967V48.1705H37.2504L37.4604 48.5583C37.9532 49.4469 39.0843 50.6507 40.1587 51.4101C41.7583 52.5572 44.1658 53.2197 45.9754 53.0097C48.3102 52.7511 50.2571 51.7978 51.8486 50.1417C52.7373 49.2207 53.4644 48.0655 53.8926 46.9183C54.0057 46.6032 54.1349 46.2801 54.1753 46.1912C54.5065 45.5126 54.6116 43.2182 54.3692 42.1922C54.1107 41.0774 53.3836 39.502 52.7131 38.581C52.2526 37.9509 51.2347 36.9007 50.7823 36.5937C50.5803 36.4563 50.4026 36.3271 50.3783 36.2948C50.2975 36.1978 49.6755 35.8424 49.0534 35.5434C47.8981 34.986 46.5975 34.679 45.3614 34.6709C42.1461 34.6467 38.9792 36.5129 37.3069 39.4132C36.9919 39.9625 36.6445 40.7381 36.6445 40.8996C36.6445 40.9481 36.7899 40.9804 36.9676 40.9804C37.2827 40.9804 37.2989 40.9643 37.4523 40.6007C38.0663 39.0981 39.2216 37.6843 40.5223 36.8441C41.4513 36.2382 42.0088 35.9958 43.1075 35.7131C44.0042 35.4869 44.085 35.4788 45.4907 35.5111C46.6702 35.5354 47.066 35.5758 47.5831 35.7212C49.9421 36.3836 51.7598 37.854 52.7777 39.9302C53.5129 41.4248 53.8522 43.4929 53.6098 44.9794C53.4482 45.9973 53.2624 46.7002 52.9797 47.3626C52.0021 49.6327 49.934 51.3858 47.4619 52.016C46.9691 52.1452 46.5652 52.1695 45.2079 52.1695C43.6245 52.1695 43.5195 52.1614 42.7843 51.9433C41.4352 51.5393 40.086 50.7234 39.1893 49.7701C38.5187 49.0672 38.2602 48.6875 38.2602 48.4209V48.1705H41.2897L41.8553 48.5825C42.9863 49.4227 44.3031 49.8347 45.5715 49.762C46.856 49.6893 48.2051 49.0915 49.2231 48.1463C49.7401 47.6535 50.4591 46.7567 50.4591 46.5951C50.4591 46.5628 50.5318 46.4336 50.6288 46.3043C50.7176 46.175 50.8792 45.8115 51.0004 45.4884C51.1781 44.9794 51.2023 44.7613 51.2023 43.8807C51.2104 42.677 51.065 42.1276 50.4914 41.1339C49.2231 38.9446 46.8075 37.6601 44.5778 37.9832C42.9701 38.2175 41.3301 39.2516 40.4496 40.5765L40.2072 40.94L49.0453 41.0208L49.2311 41.5863C49.3362 41.9014 49.4412 42.4346 49.4654 42.7739L49.5139 43.404L28.485 43.3798V24.3382H30.9086L30.949 40.94L32.4112 40.9643L33.8735 40.9804L34.1401 40.1968C34.7621 38.2983 35.6266 36.8926 37.008 35.5273C39.1166 33.443 41.6371 32.3523 44.7232 32.2069C48.5929 32.0211 52.0345 33.5318 54.4742 36.4967C55.2256 37.4096 55.9042 38.6861 56.3566 40.0271L56.6716 40.94L58.1662 40.9643L59.6689 40.9804V19.0871L59.9031 18.57C60.1859 17.948 60.6141 17.4552 61.0746 17.237C61.3735 17.0916 61.5674 17.0674 62.6257 17.0674C63.8294 17.0674 63.8375 17.0674 64.2172 17.3097C64.6373 17.5763 65.0089 18.0449 65.2028 18.5458C65.3159 18.8528 65.324 20.9209 65.3078 39.8979L65.2836 60.9107L65.0008 61.4681C64.7585 61.9447 64.6373 62.074 64.2091 62.3729C63.7729 62.6557 63.6274 62.7122 63.2962 62.7122H62.9003V19.6849L62.7388 19.5072C62.6014 19.3617 62.5368 19.3456 62.4156 19.4102C62.3268 19.4587 62.2217 19.5637 62.1733 19.6526C62.1167 19.7495 62.0925 23.7162 62.0925 31.601V43.404H56.914L56.9382 43.7918L56.9625 44.1715L59.5315 44.1958L62.0925 44.2119V62.8738H59.6689L59.6285 46.6759Z" fill="white"/>
<path d="M25.4312 23.2718C25.4635 22.2297 25.4877 22.06 25.7059 21.5188C25.9725 20.8402 26.2714 20.5736 27.0469 20.2989C27.5074 20.1373 27.7013 20.1373 42.8651 20.1373H58.2147V22.569L43.2125 22.5609C33.6069 22.5609 28.0325 22.5852 27.7256 22.6336C26.9096 22.779 26.2229 23.3042 25.8998 24.0393C25.7786 24.314 25.6816 24.419 25.5685 24.419C25.407 24.419 25.3989 24.3867 25.4312 23.2718Z" fill="white"/>
<path d="M27.5155 19.0224C27.5155 18.7478 27.5559 18.6831 27.9114 18.4085C28.5254 17.9399 29.519 17.4067 30.0926 17.229C30.5935 17.0674 30.8924 17.0674 45.3776 17.0674C59.79 17.0674 60.1536 17.0674 60.1536 17.2209C60.1536 17.3259 60.0162 17.439 59.7093 17.5844C59.2003 17.8429 58.764 18.3034 58.4813 18.9013L58.2874 19.3294H27.5155V19.0224Z" fill="white"/>
</g>
<defs>
<clipPath id="clip0_215_3608">
<rect width="40.5307" height="54.2047" fill="white" transform="translate(25.415 17.0664)"/>
</clipPath>
</defs>
</svg>
